<?xml version="1.0" encoding="utf-8"?>
<!-- Generator: Adobe Illustrator 22.0.0, SVG Export Plug-In . SVG Version: 6.00 Build 0)  -->
<svg version="1.1" id="Layer_1" xmlns="http://www.w3.org/2000/svg" xmlns:xlink="http://www.w3.org/1999/xlink" x="0px" y="0px"
	 viewBox="0 0 286 111" style="enable-background:new 0 0 286 111;" xml:space="preserve">
<style type="text/css">
	.st0{enable-background:new    ;}
	.st1{opacity:0.7843;fill-rule:evenodd;clip-rule:evenodd;fill:#A6DBA0;}
	.st2{fill:none;stroke:#A6DBA0;stroke-width:2;}
	.st3{font-family:'TimesNewRomanPS-BoldMT';}
	.st4{font-size:14px;}
	.st5{opacity:0.4706;fill-rule:evenodd;clip-rule:evenodd;fill:#046C9C;}
	.st6{fill:none;stroke:#0499AA;stroke-width:2;}
	.st7{opacity:0.6353;fill-rule:evenodd;clip-rule:evenodd;fill:#ECA4A5;}
	.st8{fill:none;stroke:#ECA5A4;stroke-width:2;}
	.st9{font-family:'TimesNewRomanPSMT';}
	.st10{fill:none;stroke:#000000;stroke-width:1.5;stroke-miterlimit:10;stroke-dasharray:6,4;}
	.st11{fill:none;stroke:#000000;stroke-width:1.5;stroke-linejoin:round;stroke-dasharray:1.5,2;}
</style>
<g class="st0">
	<path class="st1" d="M36.2,18.6c0,9.7-7.9,17.6-17.6,17.6C8.9,36.2,1,28.3,1,18.6C1,8.9,8.9,1,18.6,1C28.3,1,36.2,8.9,36.2,18.6z"
		/>
	<path class="st2" d="M36.2,18.6c0,9.7-7.9,17.6-17.6,17.6C8.9,36.2,1,28.3,1,18.6C1,8.9,8.9,1,18.6,1C28.3,1,36.2,8.9,36.2,18.6z"
		/>
	<text transform="matrix(1 0 0 1 10.9849 23.2416)" class="st3 st4">ID</text>
	<path class="st5" d="M36.2,92.4c0,9.7-7.9,17.6-17.6,17.6C8.9,110,1,102.1,1,92.4c0-9.7,7.9-17.6,17.6-17.6
		C28.3,74.8,36.2,82.6,36.2,92.4z"/>
	<path class="st6" d="M36.2,92.4c0,9.7-7.9,17.6-17.6,17.6C8.9,110,1,102.1,1,92.4c0-9.7,7.9-17.6,17.6-17.6
		C28.3,74.8,36.2,82.6,36.2,92.4z"/>
	<text transform="matrix(1 0 0 1 8.5103 97.0008)" class="st3 st4">CD</text>
	<path class="st7" d="M110.4,92.4c0,9.7-7.9,17.6-17.6,17.6c-9.7,0-17.6-7.9-17.6-17.6c0-9.7,7.9-17.6,17.6-17.6
		C102.5,74.8,110.4,82.6,110.4,92.4z"/>
	<path class="st8" d="M110.4,92.4c0,9.7-7.9,17.6-17.6,17.6c-9.7,0-17.6-7.9-17.6-17.6c0-9.7,7.9-17.6,17.6-17.6
		C102.5,74.8,110.4,82.6,110.4,92.4z"/>
	<text transform="matrix(1 0 0 1 83.4106 97.0009)" class="st3 st4">CP</text>
	<path class="st1" d="M210.8,18.6c0,9.7-7.9,17.6-17.6,17.6c-9.7,0-17.6-7.9-17.6-17.6c0-9.7,7.9-17.6,17.6-17.6
		C202.9,1,210.8,8.9,210.8,18.6z"/>
	<path class="st2" d="M210.8,18.6c0,9.7-7.9,17.6-17.6,17.6c-9.7,0-17.6-7.9-17.6-17.6c0-9.7,7.9-17.6,17.6-17.6
		C202.9,1,210.8,8.9,210.8,18.6z"/>
	<text transform="matrix(1 0 0 1 185.542 23.2416)" class="st3 st4">ID</text>
	<path class="st5" d="M210.8,92.4c0,9.7-7.9,17.6-17.6,17.6c-9.7,0-17.6-7.9-17.6-17.6c0-9.7,7.9-17.6,17.6-17.6
		C202.9,74.8,210.8,82.6,210.8,92.4z"/>
	<path class="st6" d="M210.8,92.4c0,9.7-7.9,17.6-17.6,17.6c-9.7,0-17.6-7.9-17.6-17.6c0-9.7,7.9-17.6,17.6-17.6
		C202.9,74.8,210.8,82.6,210.8,92.4z"/>
	<text transform="matrix(1 0 0 1 183.0674 97.0008)" class="st3 st4">CD</text>
	<path class="st7" d="M285,92.4c0,9.7-7.9,17.6-17.6,17.6c-9.7,0-17.6-7.9-17.6-17.6c0-9.7,7.9-17.6,17.6-17.6
		C277.1,74.8,285,82.6,285,92.4z"/>
	<path class="st8" d="M285,92.4c0,9.7-7.9,17.6-17.6,17.6c-9.7,0-17.6-7.9-17.6-17.6c0-9.7,7.9-17.6,17.6-17.6
		C277.1,74.8,285,82.6,285,92.4z"/>
	<text transform="matrix(1 0 0 1 257.9668 97.0009)" class="st3 st4">CP</text>
	<text transform="matrix(1 0 0 1 70.4317 52.6801)" class="st9 st4">one-step</text>
	<text transform="matrix(1 0 0 1 208.1396 52.6801)" class="st9 st4">two-step</text>
</g>
<g>
	<g>
		<line class="st10" x1="32.4" y1="33.2" x2="74" y2="71.1"/>
		<g>
			<polygon points="67.8,72.3 72.8,70 74.6,64.9 79.9,76.6 			"/>
		</g>
	</g>
</g>
<g>
	<g>
		<line class="st11" x1="193.2" y1="39.2" x2="193.2" y2="65"/>
		<g>
			<polygon points="189,61.8 193.2,63.6 197.3,61.8 193.2,71.7 			"/>
		</g>
	</g>
</g>
<g>
	<g>
		<line class="st11" x1="214.6" y1="92.4" x2="240.5" y2="92.4"/>
		<g>
			<polygon points="237.4,96.5 239.2,92.4 237.4,88.3 247.2,92.4 			"/>
		</g>
	</g>
</g>
</svg>
