<?xml version="1.0" encoding="utf-8"?>
<!-- Generator: Adobe Illustrator 22.0.0, SVG Export Plug-In . SVG Version: 6.00 Build 0)  -->
<svg version="1.1"
	 id="svg8" inkscape:version="0.92.2 5c3e80d, 2017-08-06" sodipodi:docname="states.svg" xmlns:cc="http://creativecommons.org/ns#" xmlns:dc="http://purl.org/dc/elements/1.1/" xmlns:inkscape="http://www.inkscape.org/namespaces/inkscape" xmlns:rdf="http://www.w3.org/1999/02/22-rdf-syntax-ns#" xmlns:sodipodi="http://sodipodi.sourceforge.net/DTD/sodipodi-0.dtd" xmlns:svg="http://www.w3.org/2000/svg"
	 xmlns="http://www.w3.org/2000/svg" xmlns:xlink="http://www.w3.org/1999/xlink" x="0px" y="0px" viewBox="0 0 339.2 317.1"
	 style="enable-background:new 0 0 339.2 317.1;" xml:space="preserve">
<style type="text/css">
	.st0{fill:none;}
	.st1{fill:#13B8C9;}
	.st2{fill:#ECA5A4;}
	.st3{fill:#A6DBA0;}
	.st4{font-family:'TimesNewRomanPSMT';}
	.st5{font-size:14px;}
	.st6{fill:#046C9C;fill-opacity:0.4706;stroke:#0499AA;stroke-width:0.7056;}
	.st7{font-family:'TimesNewRomanPS-BoldMT';}
	.st8{fill:#A6DBA0;fill-opacity:0.7843;stroke:#A6DBA0;stroke-width:0.7056;}
	.st9{fill:#ECA4A5;fill-opacity:0.6353;stroke:#ECA5A4;stroke-width:0.7056;}
	.st10{opacity:0.85;fill:url(#path1033-80-0-4-7-5-2-1-7_1_);stroke:#00112B;stroke-width:0.7056;enable-background:new    ;}
	.st11{opacity:0.85;fill:url(#path1033-80-0-07-7-9-1-2_1_);stroke:#000000;stroke-width:0.7056;enable-background:new    ;}
	.st12{opacity:0.85;fill:url(#circle1102_1_);stroke:#00112B;stroke-width:0.7056;enable-background:new    ;}
	.st13{opacity:0.85;fill:url(#circle1110_1_);stroke:#000000;stroke-width:0.7056;enable-background:new    ;}
	.st14{fill:none;stroke:#046C9C;stroke-width:1.3229;stroke-opacity:0.4706;}
	.st15{fill:none;stroke:#FF0000;stroke-width:1.3229;stroke-opacity:0.4706;}
	.st16{fill:none;stroke:#008837;stroke-width:1.3229;stroke-opacity:0.7882;}
	.st17{fill:none;stroke:#7B2894;stroke-width:1.3229;stroke-opacity:0.6048;}
	.st18{opacity:0.85;fill:url(#circle1188_1_);stroke:#00112B;stroke-width:0.7056;enable-background:new    ;}
	.st19{opacity:0.85;fill:url(#circle1196_1_);stroke:#000000;stroke-width:0.7056;enable-background:new    ;}
	.st20{opacity:0.85;fill:url(#circle1228_1_);stroke:#00112B;stroke-width:0.7056;enable-background:new    ;}
	.st21{opacity:0.85;fill:url(#circle1236_1_);stroke:#000000;stroke-width:0.7056;enable-background:new    ;}
</style>
<pattern  y="317.1" width="42.9" height="171.5" patternUnits="userSpaceOnUse" id="circle1102_2_" viewBox="0 -171.7 42.9 171.5" style="overflow:visible;">
	<g>
		<rect y="-171.7" class="st0" width="42.9" height="171.5"/>
		<g>
			<rect y="-171.7" class="st0" width="42.9" height="171.5"/>
			<g>
				<rect y="-171.7" class="st0" width="42.9" height="171.5"/>
				<g id="g3429_6_" transform="matrix(3.7795276,0,0,3.7795276,-406.62889,-960.15185)">
					<rect id="rect2994-03_6_" x="107.6" y="208.6" class="st1" width="5.7" height="45.4"/>
					<rect id="rect2994-3-61_6_" x="113.3" y="208.6" class="st2" width="5.7" height="45.4"/>
				</g>
			</g>
		</g>
	</g>
</pattern>
<pattern  y="317.1" width="339.2" height="305.1" patternUnits="userSpaceOnUse" id="circle1110_2_" viewBox="0 -305.1 339.2 305.1" style="overflow:visible;">
	<g>
		<rect y="-305.1" class="st0" width="339.2" height="305.1"/>
		<g>
			<rect y="-305.1" class="st0" width="339.2" height="305.1"/>
			<g>
				<rect y="-305.1" class="st0" width="339.2" height="305.1"/>
			</g>
		</g>
	</g>
</pattern>
<pattern  y="317.1" width="42.9" height="171.5" patternUnits="userSpaceOnUse" id="circle1188_2_" viewBox="0 -171.7 42.9 171.5" style="overflow:visible;">
	<g>
		<rect y="-171.7" class="st0" width="42.9" height="171.5"/>
		<g>
			<rect y="-171.7" class="st0" width="42.9" height="171.5"/>
			<g>
				<rect y="-171.7" class="st0" width="42.9" height="171.5"/>
				<g id="g3429_7_" transform="matrix(3.7795276,0,0,3.7795276,-406.62889,-960.15185)">
					<rect id="rect2994-03_7_" x="107.6" y="208.6" class="st1" width="5.7" height="45.4"/>
					<rect id="rect2994-3-61_7_" x="113.3" y="208.6" class="st2" width="5.7" height="45.4"/>
				</g>
			</g>
		</g>
	</g>
</pattern>
<pattern  y="317.1" width="339.2" height="305.1" patternUnits="userSpaceOnUse" id="circle1196_2_" viewBox="0 -305.1 339.2 305.1" style="overflow:visible;">
	<g>
		<rect y="-305.1" class="st0" width="339.2" height="305.1"/>
		<g>
			<rect y="-305.1" class="st0" width="339.2" height="305.1"/>
			<g>
				<rect y="-305.1" class="st0" width="339.2" height="305.1"/>
			</g>
		</g>
	</g>
</pattern>
<pattern  y="317.1" width="42.9" height="171.5" patternUnits="userSpaceOnUse" id="circle1228_2_" viewBox="0 -171.7 42.9 171.5" style="overflow:visible;">
	<g>
		<rect y="-171.7" class="st0" width="42.9" height="171.5"/>
		<g>
			<rect y="-171.7" class="st0" width="42.9" height="171.5"/>
			<g>
				<rect y="-171.7" class="st0" width="42.9" height="171.5"/>
				<g id="g3429_8_" transform="matrix(3.7795276,0,0,3.7795276,-406.62889,-960.15185)">
					<rect id="rect2994-03_8_" x="107.6" y="208.6" class="st1" width="5.7" height="45.4"/>
					<rect id="rect2994-3-61_8_" x="113.3" y="208.6" class="st2" width="5.7" height="45.4"/>
				</g>
			</g>
		</g>
	</g>
</pattern>
<pattern  y="317.1" width="339.2" height="305.1" patternUnits="userSpaceOnUse" id="circle1236_2_" viewBox="0 -305.1 339.2 305.1" style="overflow:visible;">
	<g>
		<rect y="-305.1" class="st0" width="339.2" height="305.1"/>
		<g>
			<rect y="-305.1" class="st0" width="339.2" height="305.1"/>
			<g>
				<rect y="-305.1" class="st0" width="339.2" height="305.1"/>
			</g>
		</g>
	</g>
</pattern>
<pattern  y="317.1" width="42.9" height="171.5" patternUnits="userSpaceOnUse" id="path1033-80-0-07-7-9-1-2_2_" viewBox="0 -171.5 42.9 171.5" style="overflow:visible;">
	<g>
		<rect x="0" y="-171.5" class="st0" width="42.9" height="171.5"/>
		<g>
			<rect x="0" y="-171.5" class="st0" width="42.9" height="171.5"/>
			<g>
				<rect x="0" y="-171.5" class="st0" width="42.9" height="171.5"/>
				<g id="g3060_1_" transform="matrix(3.7795276,0,0,3.7795276,-450.92873,-973.658)">
					<rect id="rect2994_1_" x="119.3" y="212.2" class="st3" width="5.7" height="45.4"/>
					<rect id="rect2994-3_1_" x="125" y="212.2" class="st1" width="5.7" height="45.4"/>
				</g>
			</g>
		</g>
	</g>
</pattern>
<pattern  y="317.1" width="42.9" height="171.5" patternUnits="userSpaceOnUse" id="path1033-80-0-4-7-5-2-1-7_2_" viewBox="0 -171.7 42.9 171.5" style="overflow:visible;">
	<g>
		<rect y="-171.7" class="st0" width="42.9" height="171.5"/>
		<g>
			<rect y="-171.7" class="st0" width="42.9" height="171.5"/>
			<g>
				<rect y="-171.7" class="st0" width="42.9" height="171.5"/>
				<g id="g3429_4_" transform="matrix(3.7795276,0,0,3.7795276,-406.62889,-960.15185)">
					<rect id="rect2994-03_4_" x="107.6" y="208.6" class="st1" width="5.7" height="45.4"/>
					<rect id="rect2994-3-61_4_" x="113.3" y="208.6" class="st2" width="5.7" height="45.4"/>
				</g>
			</g>
		</g>
	</g>
</pattern>
<sodipodi:namedview  bordercolor="#666666" borderopacity="1.0" fit-margin-bottom="0" fit-margin-left="0" fit-margin-right="0" fit-margin-top="0" id="base" inkscape:current-layer="g1022" inkscape:cx="196.25604" inkscape:cy="262.93874" inkscape:document-units="mm" inkscape:guide-bbox="true" inkscape:pageopacity="0.0" inkscape:pageshadow="2" inkscape:snap-global="false" inkscape:window-height="751" inkscape:window-maximized="0" inkscape:window-width="1280" inkscape:window-x="152" inkscape:window-y="90" inkscape:zoom="1.2942688" pagecolor="#ffffff" showborder="false" showgrid="false" showguides="true">
	</sodipodi:namedview>
<text transform="matrix(1 0 0 1 186.0684 69.6416)" class="st4 st5">170</text>
<text transform="matrix(1 0 0 1 224.748 69.6553)" class="st4 st5">157</text>
<text transform="matrix(1 0 0 1 266.8516 69.6553)" class="st4 st5">70</text>
<text transform="matrix(1 0 0 1 301.2559 62.6553)" class="st4 st5">  85</text>
<text transform="matrix(1 0 0 1 301.2559 76.6553)" class="st4 st5">+23</text>
<text transform="matrix(1 0 0 1 146.4795 62.7373)" class="st4 st5">124</text>
<text transform="matrix(1 0 0 1 146.4795 76.7373)" class="st4 st5">+20</text>
<circle id="path1033-8-4-8-5-6-9-3" class="st6" cx="234.7" cy="28.6" r="17.6"/>
<text transform="matrix(1 0 0 1 224.5703 33.2422)" class="st7 st5">CD</text>
<circle id="path1033-80-87-3-1-5-9" class="st8" cx="157.3" cy="28.6" r="17.6"/>
<circle id="path1033-9-0-43-3-6-5-9" class="st9" cx="312.1" cy="28.6" r="17.6"/>
<pattern  id="path1033-80-0-4-7-5-2-1-7_1_" xlink:href="#path1033-80-0-4-7-5-2-1-7_2_" patternTransform="matrix(0.75 0 0 -0.75 -6071.4072 -27348.793)">
</pattern>
<circle id="path1033-80-0-4-7-5-2-1-7" class="st10" cx="273.4" cy="28.6" r="17.6"/>
<text transform="matrix(1 0 0 1 264.9238 33.2422)" class="st7 st5">C?</text>
<pattern  id="path1033-80-0-07-7-9-1-2_1_" xlink:href="#path1033-80-0-07-7-9-1-2_2_" patternTransform="matrix(0.75 0 0 -0.75 -6038.167 -27358.6367)">
</pattern>
<circle id="path1033-80-0-07-7-9-1-2" class="st11" cx="196" cy="28.6" r="17.6"/>
<text transform="matrix(1 0 0 1 187.2783 33.2559)" class="st7 st5">?D</text>
<text transform="matrix(1 0 0 1 149.6445 26.1504)" class="st7 st5">ID</text>
<text transform="matrix(1 0 0 1 151.2002 40.1504)" class="st7 st5">I?</text>
<text transform="matrix(1 0 0 1 301.7236 26.2559)" class="st7 st5">CP</text>
<text transform="matrix(1 0 0 1 303.2783 40.2559)" class="st7 st5">?P</text>
<g id="g1072" transform="translate(0,1.718619e-6)">
	<text transform="matrix(1 0 0 1 34.4414 125.3721)" class="st4 st5">Ploidy-only</text>
	<text transform="matrix(1 0 0 1 46.6982 139.3721)" class="st4 st5">models</text>
	<text transform="matrix(1 0 0 1 37.6396 153.3721)" class="st4 st5">(M1-M10)</text>
	<circle id="circle1088" class="st6" cx="234.7" cy="137.6" r="17.6"/>
	<text transform="matrix(1 0 0 1 224.5703 142.2422)" class="st7 st5">CD</text>
	<circle id="circle1094" class="st8" cx="157.3" cy="137.6" r="17.6"/>
	<circle id="circle1096" class="st9" cx="312.1" cy="137.6" r="17.6"/>
	<pattern  id="circle1102_1_" xlink:href="#circle1102_2_" patternTransform="matrix(0.75 0 0 -0.75 -6071.4072 -27332.793)">
	</pattern>
	<circle id="circle1102" class="st12" cx="273.4" cy="137.6" r="17.6"/>
	<text transform="matrix(1 0 0 1 264.9238 142.2422)" class="st7 st5">C?</text>
	<pattern  id="circle1110_1_" xlink:href="#circle1110_2_" patternTransform="matrix(0.75 0 0 -0.75 -5661.8301 -27963.3105)">
	</pattern>
	<circle id="circle1110" class="st13" cx="196" cy="137.6" r="17.6"/>
	<text transform="matrix(1 0 0 1 187.2783 142.2559)" class="st7 st5">?D</text>
	<text transform="matrix(1 0 0 1 149.6445 135.1504)" class="st7 st5">ID</text>
	<text transform="matrix(1 0 0 1 151.2002 149.1504)" class="st7 st5">I?</text>
	<text transform="matrix(1 0 0 1 301.7236 135.2559)" class="st7 st5">CP</text>
	<text transform="matrix(1 0 0 1 303.2783 149.2559)" class="st7 st5">?P</text>
	<g id="g3339" transform="translate(0,1.3236065)">
		<path id="rect1128" class="st14" d="M145.1,111.2H281c5.9,0,10.6,2.9,10.6,6.4v33.9c0,3.5-4.8,6.4-10.6,6.4H145.1
			c-5.9,0-10.6-2.9-10.6-6.4v-33.9C134.5,114,139.3,111.2,145.1,111.2z"/>
		<path id="rect1151" class="st15" d="M262.4,114.6H330c4,0,7.3,3,7.3,6.6v33.5c0,3.7-3.3,6.6-7.3,6.6h-67.6c-4,0-7.3-3-7.3-6.6
			v-33.5C255.2,117.6,258.4,114.6,262.4,114.6z"/>
	</g>
</g>
<g id="g1047" transform="translate(0,-4.5660535)">
	<g id="g3343" transform="translate(0,0.49773788)">
		<path id="rect196-0-9-7" class="st16" d="M139.7,184.9h70.5c4,0,7.3,3,7.3,6.6V227c0,3.7-3.3,6.6-7.3,6.6h-70.5
			c-4,0-7.3-3-7.3-6.6v-35.5C132.4,187.9,135.7,184.9,139.7,184.9z"/>
		<path id="rect196-0-0-4-2" class="st17" d="M187.3,188.3h142.5c4,0,7.3,3,7.3,6.6v35.5c0,3.7-3.3,6.6-7.3,6.6H187.3
			c-4,0-7.3-3-7.3-6.6V195C180,191.3,183.3,188.3,187.3,188.3z"/>
	</g>
	<text transform="matrix(1 0 0 1 19.0107 199.2682)" class="st4 st5">Breeding system-</text>
	<text transform="matrix(1 0 0 1 32.4482 213.2682)" class="st4 st5">only models</text>
	<text transform="matrix(1 0 0 1 34.3447 227.2682)" class="st4 st5">(M11-M15)</text>
	<circle id="circle1174" class="st6" cx="236.3" cy="211.5" r="17.6"/>
	<text transform="matrix(1 0 0 1 226.1553 216.1481)" class="st7 st5">CD</text>
	<circle id="circle1180" class="st8" cx="158.9" cy="211.5" r="17.6"/>
	<circle id="circle1182" class="st9" cx="313.7" cy="211.5" r="17.6"/>
	<pattern  id="circle1188_1_" xlink:href="#circle1188_2_" patternTransform="matrix(0.75 0 0 -0.75 -6071.4072 -27319.8496)">
	</pattern>
	<circle id="circle1188" class="st18" cx="275" cy="211.5" r="17.6"/>
	<text transform="matrix(1 0 0 1 266.5088 216.1481)" class="st7 st5">C?</text>
	<pattern  id="circle1196_1_" xlink:href="#circle1196_2_" patternTransform="matrix(0.75 0 0 -0.75 -5660.2451 -28032.6504)">
	</pattern>
	<circle id="circle1196" class="st19" cx="197.6" cy="211.5" r="17.6"/>
	<text transform="matrix(1 0 0 1 188.8633 216.1618)" class="st7 st5">?D</text>
	<text transform="matrix(1 0 0 1 151.2295 209.0563)" class="st7 st5">ID</text>
	<text transform="matrix(1 0 0 1 152.7852 223.0563)" class="st7 st5">I?</text>
	<text transform="matrix(1 0 0 1 303.3086 209.1618)" class="st7 st5">CP</text>
	<text transform="matrix(1 0 0 1 304.8633 223.1618)" class="st7 st5">?P</text>
</g>
<g id="g1022" transform="translate(0,-8.4666671)">
	<text transform="matrix(1 0 0 1 11.4844 265.329)" class="st4 st5">Ploidy and breeding</text>
	<text transform="matrix(1 0 0 1 18.4482 279.329)" class="st4 st5">system models &amp;</text>
	<text transform="matrix(1 0 0 1 21.0107 296.2)" class="st4 st5">Lumped models</text>
	<text transform="matrix(1 0 0 1 37.5303 310.2)" class="st4 st5">M16-M29</text>
	<circle id="circle1214" class="st6" cx="234.7" cy="285.6" r="17.6"/>
	<text transform="matrix(1 0 0 1 224.5703 290.2089)" class="st7 st5">CD</text>
	<circle id="circle1220" class="st8" cx="157.3" cy="285.6" r="17.6"/>
	<circle id="circle1222" class="st9" cx="312.1" cy="285.6" r="17.6"/>
	<pattern  id="circle1228_1_" xlink:href="#circle1228_2_" patternTransform="matrix(0.75 0 0 -0.75 -6071.4072 -27308.793)">
	</pattern>
	<circle id="circle1228" class="st20" cx="273.4" cy="285.6" r="17.6"/>
	<text transform="matrix(1 0 0 1 264.9238 290.2089)" class="st7 st5">C?</text>
	<pattern  id="circle1236_1_" xlink:href="#circle1236_2_" patternTransform="matrix(0.75 0 0 -0.75 -5661.8301 -28102.8105)">
	</pattern>
	<circle id="circle1236" class="st21" cx="196" cy="285.6" r="17.6"/>
	<text transform="matrix(1 0 0 1 187.2783 290.2225)" class="st7 st5">?D</text>
	<text transform="matrix(1 0 0 1 149.6445 283.1171)" class="st7 st5">ID</text>
	<text transform="matrix(1 0 0 1 151.2002 297.1171)" class="st7 st5">I?</text>
	<text transform="matrix(1 0 0 1 301.7236 283.2225)" class="st7 st5">CP</text>
	<text transform="matrix(1 0 0 1 303.2783 297.2225)" class="st7 st5">?P</text>
	<g id="g3362" transform="translate(0,-0.3764677)">
		<path id="rect196-0-9-4-3-3-4-4" class="st16" d="M138.6,260h69.3c4.2,0,7.5,3,7.5,6.6V302c0,3.7-3.4,6.6-7.5,6.6h-69.3
			c-4.2,0-7.5-3-7.5-6.6v-35.4C131,263,134.4,260,138.6,260z"/>
		<path id="rect196-0-9-4-3-3-4-4-6" class="st15" d="M261.7,260.8h66.8c4,0,7.3,3,7.3,6.6v34.7c0,3.7-3.3,6.6-7.3,6.6h-66.8
			c-4,0-7.3-3-7.3-6.6v-34.7C254.5,263.8,257.7,260.8,261.7,260.8z"/>
		<path id="rect196-0-9-4-3-3-1" class="st14" d="M185.3,264.3h98.5c4,0,7.3,3,7.3,6.6v34.3c0,3.7-3.3,6.6-7.3,6.6h-98.5
			c-4,0-7.3-3-7.3-6.6v-34.3C178.1,267.2,181.3,264.3,185.3,264.3z"/>
	</g>
</g>
<text transform="matrix(1 0 0 1 33.4414 69.6553)" class="st4 st5">num species    =</text>
<text transform="matrix(1 0 0 1 0.4258 11.6104)" class="st4 st5">(A)</text>
<text transform="matrix(1 0 0 1 0.9258 113.5225)" class="st4 st5">(B)</text>
</svg>
