<?xml version="1.0" encoding="UTF-8" standalone="no"?>
<!-- Generator: Adobe Illustrator 22.0.0, SVG Export Plug-In . SVG Version: 6.00 Build 0)  -->

<svg
   xmlns:dc="http://purl.org/dc/elements/1.1/"
   xmlns:cc="http://creativecommons.org/ns#"
   xmlns:rdf="http://www.w3.org/1999/02/22-rdf-syntax-ns#"
   xmlns:svg="http://www.w3.org/2000/svg"
   xmlns="http://www.w3.org/2000/svg"
   xmlns:sodipodi="http://sodipodi.sourceforge.net/DTD/sodipodi-0.dtd"
   xmlns:inkscape="http://www.inkscape.org/namespaces/inkscape"
   version="1.1"
   id="svg8"
   inkscape:version="0.92.2 5c3e80d, 2017-08-06"
   sodipodi:docname="states2.svg"
   x="0px"
   y="0px"
   viewBox="0 0 318.7 341.1"
   style="enable-background:new 0 0 318.7 341.1;"
   xml:space="preserve"><metadata
     id="metadata138"><rdf:RDF><cc:Work
         rdf:about=""><dc:format>image/svg+xml</dc:format><dc:type
           rdf:resource="http://purl.org/dc/dcmitype/StillImage" /></cc:Work></rdf:RDF></metadata><defs
     id="defs136" /><style
     type="text/css"
     id="style2">
	.st0{fill:none;stroke:#008837;stroke-width:1.3135;stroke-opacity:0.7882;}
	.st1{fill:none;stroke:#FF0000;stroke-width:1.4111;stroke-opacity:0.4706;}
	.st2{fill:none;stroke:#008837;stroke-width:1.2568;stroke-opacity:0.7882;}
	.st3{fill:none;stroke:#7B2894;stroke-width:1.4111;stroke-opacity:0.6048;}
	.st4{font-family:'TimesNewRomanPSMT';}
	.st5{font-size:14px;}
	.st6{enable-background:new    ;}
	.st7{fill:#046C9C;fill-opacity:0.4706;stroke:#046C9C;stroke-width:0.7056;stroke-opacity:0.4706;}
	.st8{font-family:'TimesNewRomanPS-BoldMT';}
	.st9{fill:#A6DBA0;fill-opacity:0.7843;stroke:#A6DBA0;stroke-width:0.7056;}
	.st10{fill:#ECA4A5;fill-opacity:0.6353;stroke:#ECA5A4;stroke-width:0.7056;}
	.st11{fill:none;stroke:#00112B;stroke-width:0.7056;}
	.st12{fill:none;stroke:#046C9C;stroke-width:1.3861;stroke-opacity:0.4706;}
	.st13{fill:none;stroke:#046C9C;stroke-width:1.392;stroke-opacity:0.4706;}
	.st14{font-family:'MyriadPro-Regular';}
</style><sodipodi:namedview
     bordercolor="#666666"
     borderopacity="1.0"
     fit-margin-bottom="0"
     fit-margin-left="0"
     fit-margin-right="0"
     fit-margin-top="0"
     id="base"
     inkscape:current-layer="layer1"
     inkscape:cx="188.09105"
     inkscape:cy="319.96079"
     inkscape:document-units="mm"
     inkscape:guide-bbox="true"
     inkscape:pageopacity="0.0"
     inkscape:pageshadow="2"
     inkscape:snap-global="false"
     inkscape:window-height="751"
     inkscape:window-maximized="0"
     inkscape:window-width="1280"
     inkscape:window-x="31"
     inkscape:window-y="114"
     inkscape:zoom="1.871903"
     pagecolor="#ffffff"
     showborder="false"
     showgrid="false"
     showguides="true" /><g
     id="layer1"
     transform="translate(-115.87769,-261.19378)"
     inkscape:groupmode="layer"
     inkscape:label="Layer 1"><path
       id="rect196-0-9-4-3-3-4-4"
       class="st0"
       d="M233.8,553h69.4c4.2,0,7.5,3,7.5,6.6v33.9c0,3.7-3.4,6.6-7.5,6.6h-69.4   c-4.2,0-7.5-3-7.5-6.6v-33.9C226.3,556,229.7,553,233.8,553z" /><path
       id="rect196-0-9-4-3-3-4-4-6"
       class="st1"
       d="M357,553.8h66.8c4,0,7.3,3,7.3,6.6v33.2c0,3.7-3.3,6.6-7.3,6.6H357   c-4,0-7.3-3-7.3-6.6v-33.2C349.8,556.7,353,553.8,357,553.8z" /><path
       id="rect196-0-9-7"
       class="st2"
       d="M235,471.7h70.5c4,0,7.3,3,7.3,6.6v33.9c0,3.7-3.3,6.6-7.3,6.6H235c-4,0-7.3-3-7.3-6.6   v-33.9C227.7,474.7,230.9,471.7,235,471.7z" /><path
       id="rect196-0-0-4-2"
       class="st3"
       d="M282.6,471.1h142.5c4,0,7.3,3,7.3,6.6v35.1c0,3.7-3.3,6.6-7.3,6.6H282.6   c-4,0-7.3-3-7.3-6.6v-35.1C275.3,474.1,278.6,471.1,282.6,471.1z" /><text
       transform="matrix(1 0 0 1 146.3748 411.2924)"
       class="st4 st5"
       id="text9">D/P &amp;</text>
<text
       transform="matrix(1 0 0 1 137.6931 425.2924)"
       class="st4 st5"
       id="text11">D/P+A/B</text>
<text
       transform="matrix(1 0 0 1 148.0085 493.1049)"
       class="st4 st5"
       id="text13">I/C &amp;</text>
<text
       transform="matrix(1 0 0 1 139.5867 507.1049)"
       class="st4 st5"
       id="text15">I/C+A/B</text>
<text
       transform="matrix(1 0 0 1 127.6511 574.351)"
       class="st4 st5"
       id="text17">ID/CD/CP &amp;</text>
<text
       transform="matrix(1 0 0 1 118.9695 588.351)"
       class="st4 st5"
       id="text19">ID/CD/CP+A/B</text>
<text
       transform="translate(361.6091,335.8354)"
       class="st4 st5"
       id="text25"
       style="font-size:14px;font-family:TimesNewRomanPSMT" />
<text
       class="st6"
       id="text37"
       style="enable-background:new"
       x="233.39838"
       y="329.95901" />
<g
       id="g1172"><circle
         id="path1033-8-4-8-5-6-9-3"
         class="st7"
         cx="330"
         cy="297.8"
         r="17.6" /><text
         transform="matrix(1 0 0 1 319.8542 302.436)"
         class="st8 st5"
         id="text40">CD</text>
<circle
         id="path1033-80-87-3-1-5-9"
         class="st9"
         cx="252.6"
         cy="297.8"
         r="17.6" /><circle
         id="path1033-9-0-43-3-6-5-9"
         class="st10"
         cx="407.4"
         cy="297.8"
         r="17.6" /><g
         id="g1567-8-9-0-6"
         transform="translate(132.76876,33.063121)"><text
           transform="matrix(1 0 0 1 227.439 269.3729)"
           class="st8 st5"
           id="text44">C?</text>
<circle
           id="path1033-80-0-4-7-5-2-1-7"
           class="st11"
           cx="235.9"
           cy="264.7"
           r="17.6" /></g><g
         id="g1557-3-8-3-9"
         transform="translate(132.76876,33.063121)"><text
           transform="matrix(1 0 0 1 149.7935 269.3865)"
           class="st8 st5"
           id="text48">?D</text>
<circle
           id="path1033-80-0-07-7-9-1-2"
           class="st11"
           cx="158.5"
           cy="264.7"
           r="17.6" /></g><text
         transform="matrix(1 0 0 1 244.9285 295.3442)"
         class="st8 st5"
         id="text52">ID</text>
<text
         transform="matrix(1 0 0 1 246.4841 309.3442)"
         class="st8 st5"
         id="text54">I?</text>
<text
         transform="matrix(1 0 0 1 397.0076 295.4496)"
         class="st8 st5"
         id="text56">CP</text>
<text
         transform="matrix(1 0 0 1 398.5623 309.4496)"
         class="st8 st5"
         id="text58">?P</text>
</g><g
       id="g1126"
       transform="translate(0,32.808348)"><circle
         id="circle1088"
         class="st7"
         cx="330"
         cy="380"
         r="17.6" /><text
         transform="matrix(1 0 0 1 319.8542 384.6276)"
         class="st8 st5"
         id="text62">CD</text>
<circle
         id="circle1094"
         class="st9"
         cx="252.6"
         cy="380"
         r="17.6" /><circle
         id="circle1096"
         class="st10"
         cx="407.4"
         cy="380"
         r="17.6" /><g
         id="g1104"
         transform="translate(132.76876,33.063121)"><text
           transform="matrix(1 0 0 1 227.439 351.5645)"
           class="st8 st5"
           id="text66">C?</text>
<circle
           id="circle1102"
           class="st11"
           cx="235.9"
           cy="346.9"
           r="17.6" /></g><g
         id="g1112"
         transform="translate(132.76876,33.063121)"><text
           transform="matrix(1 0 0 1 149.7935 351.5782)"
           class="st8 st5"
           id="text70">?D</text>
<circle
           id="circle1110"
           class="st11"
           cx="158.5"
           cy="346.9"
           r="17.6" /></g><text
         transform="matrix(1 0 0 1 244.9285 377.5358)"
         class="st8 st5"
         id="text74">ID</text>
<text
         transform="matrix(1 0 0 1 246.4841 391.5358)"
         class="st8 st5"
         id="text76">I?</text>
<text
         transform="matrix(1 0 0 1 397.0076 377.6413)"
         class="st8 st5"
         id="text78">CP</text>
<text
         transform="matrix(1 0 0 1 398.5623 391.6413)"
         class="st8 st5"
         id="text80">?P</text>
</g><path
       id="rect1128"
       class="st12"
       d="M240.4,390.8h136c5.9,0,10.6,2.9,10.6,6.4v32.4c0,3.5-4.8,6.4-10.6,6.4h-136   c-5.9,0-10.6-2.9-10.6-6.4v-32.4C229.7,393.6,234.5,390.8,240.4,390.8z" /><path
       id="rect1151"
       class="st1"
       d="M357.7,389.7h67.6c4,0,7.3,3,7.3,6.6v33.2c0,3.7-3.3,6.6-7.3,6.6h-67.6c-4,0-7.3-3-7.3-6.6   v-33.2C350.5,392.7,353.7,389.7,357.7,389.7z" /><g
       id="g1212"
       transform="translate(0.55907129,61.835899)"><circle
         id="circle1174"
         class="st7"
         cx="331"
         cy="433.2"
         r="17.6" /><text
         transform="matrix(1 0 0 1 320.8802 437.8833)"
         class="st8 st5"
         id="text86">CD</text>
<circle
         id="circle1180"
         class="st9"
         cx="253.6"
         cy="433.2"
         r="17.6" /><circle
         id="circle1182"
         class="st10"
         cx="408.4"
         cy="433.2"
         r="17.6" /><g
         id="g1190"
         transform="translate(132.76876,33.063121)"><text
           transform="matrix(1 0 0 1 228.4649 404.8202)"
           class="st8 st5"
           id="text90">C?</text>
<circle
           id="circle1188"
           class="st11"
           cx="236.9"
           cy="400.2"
           r="17.6" /></g><g
         id="g1198"
         transform="translate(132.76876,33.063121)"><text
           transform="matrix(1 0 0 1 150.8194 404.8338)"
           class="st8 st5"
           id="text94">?D</text>
<circle
           id="circle1196"
           class="st11"
           cx="159.5"
           cy="400.2"
           r="17.6" /></g><text
         transform="matrix(1 0 0 1 245.9544 430.7905)"
         class="st8 st5"
         id="text98">ID</text>
<text
         transform="matrix(1 0 0 1 247.51 444.7905)"
         class="st8 st5"
         id="text100">I?</text>
<text
         transform="matrix(1 0 0 1 398.0335 430.8969)"
         class="st8 st5"
         id="text102">CP</text>
<text
         transform="matrix(1 0 0 1 399.5882 444.8969)"
         class="st8 st5"
         id="text104">?P</text>
</g><g
       id="g1252"
       transform="translate(0,90.487551)"><circle
         id="circle1214"
         class="st7"
         cx="330"
         cy="485.8"
         r="17.6" /><text
         transform="matrix(1 0 0 1 319.8542 490.4484)"
         class="st8 st5"
         id="text108">CD</text>
<circle
         id="circle1220"
         class="st9"
         cx="252.6"
         cy="485.8"
         r="17.6" /><circle
         id="circle1222"
         class="st10"
         cx="407.4"
         cy="485.8"
         r="17.6" /><g
         id="g1230"
         transform="translate(132.76876,33.063121)"><text
           transform="matrix(1 0 0 1 227.439 457.3853)"
           class="st8 st5"
           id="text112">C?</text>
<circle
           id="circle1228"
           class="st11"
           cx="235.9"
           cy="452.8"
           r="17.6" /></g><g
         id="g1238"
         transform="translate(132.76876,33.063121)"><text
           transform="matrix(1 0 0 1 149.7935 457.399)"
           class="st8 st5"
           id="text116">?D</text>
<circle
           id="circle1236"
           class="st11"
           cx="158.5"
           cy="452.8"
           r="17.6" /></g><text
         transform="matrix(1 0 0 1 244.9285 483.3566)"
         class="st8 st5"
         id="text120">ID</text>
<text
         transform="matrix(1 0 0 1 246.4841 497.3566)"
         class="st8 st5"
         id="text122">I?</text>
<text
         transform="matrix(1 0 0 1 397.0076 483.4621)"
         class="st8 st5"
         id="text124">CP</text>
<text
         transform="matrix(1 0 0 1 398.5623 497.4621)"
         class="st8 st5"
         id="text126">?P</text>
</g><path
       id="rect196-0-9-4-3-3-1"
       class="st13"
       d="M280.6,553.9h98.5c4,0,7.3,3,7.3,6.6v32.8c0,3.7-3.3,6.6-7.3,6.6h-98.5   c-4,0-7.3-3-7.3-6.6v-32.8C273.4,556.9,276.6,553.9,280.6,553.9z" /><text
       xml:space="preserve"
       style="font-style:normal;font-weight:normal;font-size:85.33333588px;line-height:1.25;font-family:sans-serif;letter-spacing:0px;word-spacing:0px;fill:#000000;fill-opacity:1;stroke:none"
       x="236.07622"
       y="329.84378"
       id="text949"><tspan
         sodipodi:role="line"
         x="236.07622"
         y="329.84378"
         style="font-size:13.33333302px"
         id="tspan959">127</tspan><tspan
         sodipodi:role="line"
         x="236.07622"
         y="436.51044"
         style="font-size:13.33333302px"
         id="tspan963" /></text>
<flowRoot
       xml:space="preserve"
       id="flowRoot965"
       style="fill:black;fill-opacity:1;stroke:none;font-family:sans-serif;font-style:normal;font-weight:normal;font-size:85.33333333px;line-height:1.25;letter-spacing:0px;word-spacing:0px"><flowRegion
         id="flowRegion967"><rect
           id="rect969"
           width="6.9448042"
           height="101.50098"
           x="96.693047"
           y="72.389503" /></flowRegion><flowPara
         id="flowPara971"></flowPara></flowRoot><text
       id="text977"
       y="344.26761"
       x="231.26828"
       style="font-style:normal;font-weight:normal;font-size:85.33333588px;line-height:1.25;font-family:sans-serif;letter-spacing:0px;word-spacing:0px;fill:#000000;fill-opacity:1;stroke:none"
       xml:space="preserve"><tspan
         id="tspan973"
         style="font-size:13.33333302px"
         y="344.26761"
         x="231.26828"
         sodipodi:role="line">+13</tspan><tspan
         id="tspan975"
         style="font-size:13.33333302px"
         y="450.93427"
         x="231.26828"
         sodipodi:role="line" /></text>
<text
       id="text983"
       y="330.37799"
       x="278.27927"
       style="font-style:normal;font-weight:normal;font-size:85.33333588px;line-height:1.25;font-family:sans-serif;letter-spacing:0px;word-spacing:0px;fill:#000000;fill-opacity:1;stroke:none"
       xml:space="preserve"><tspan
         id="tspan979"
         style="font-size:13.33333302px"
         y="330.37799"
         x="278.27927"
         sodipodi:role="line">178</tspan><tspan
         id="tspan981"
         style="font-size:13.33333302px"
         y="437.04465"
         x="278.27927"
         sodipodi:role="line" /></text>
<text
       xml:space="preserve"
       style="font-style:normal;font-weight:normal;font-size:85.33333588px;line-height:1.25;font-family:sans-serif;letter-spacing:0px;word-spacing:0px;fill:#000000;fill-opacity:1;stroke:none"
       x="316.27927"
       y="330.37799"
       id="text989"><tspan
         sodipodi:role="line"
         x="316.27927"
         y="330.37799"
         style="font-size:13.33333302px"
         id="tspan985">163</tspan><tspan
         sodipodi:role="line"
         x="316.27927"
         y="437.04465"
         style="font-size:13.33333302px"
         id="tspan987" /></text>
<text
       id="text995"
       y="330.37799"
       x="362.27927"
       style="font-style:normal;font-weight:normal;font-size:85.33333588px;line-height:1.25;font-family:sans-serif;letter-spacing:0px;word-spacing:0px;fill:#000000;fill-opacity:1;stroke:none"
       xml:space="preserve"><tspan
         id="tspan991"
         style="font-size:13.33333302px"
         y="330.37799"
         x="362.27927"
         sodipodi:role="line">56</tspan><tspan
         id="tspan993"
         style="font-size:13.33333302px"
         y="437.04465"
         x="362.27927"
         sodipodi:role="line" /></text>
<text
       id="text1001"
       y="330.37799"
       x="399.40936"
       style="font-style:normal;font-weight:normal;font-size:85.33333588px;line-height:1.25;font-family:sans-serif;letter-spacing:0px;word-spacing:0px;fill:#000000;fill-opacity:1;stroke:none"
       xml:space="preserve"><tspan
         id="tspan997"
         style="font-size:13.33333302px"
         y="330.37799"
         x="399.40936"
         sodipodi:role="line">92</tspan><tspan
         id="tspan999"
         style="font-size:13.33333302px"
         y="437.04465"
         x="399.40936"
         sodipodi:role="line" /></text>
<text
       xml:space="preserve"
       style="font-style:normal;font-weight:normal;font-size:85.33333588px;line-height:1.25;font-family:sans-serif;letter-spacing:0px;word-spacing:0px;fill:#000000;fill-opacity:1;stroke:none"
       x="388.19083"
       y="344.26761"
       id="text1007"><tspan
         sodipodi:role="line"
         x="388.19083"
         y="344.26761"
         style="font-size:13.33333302px"
         id="tspan1003">+22</tspan><tspan
         sodipodi:role="line"
         x="388.19083"
         y="450.93427"
         style="font-size:13.33333302px"
         id="tspan1005" /></text>
</g><text
     transform="matrix(1 0 0 1 3.0918 20)"
     class="st14 st5"
     id="text131">(a)</text>
<text
     transform="matrix(1 0 0 1 3.0918 128.5422)"
     class="st14 st5"
     id="text133">(b)</text>
</svg>